<?xml version="1.0" encoding="utf-8"?>
<!-- Generator: Adobe Illustrator 24.3.0, SVG Export Plug-In . SVG Version: 6.00 Build 0)  -->
<svg version="1.1" id="Layer_2_1_" xmlns="http://www.w3.org/2000/svg" xmlns:xlink="http://www.w3.org/1999/xlink" x="0px" y="0px"
	 viewBox="0 0 105.3 133.4" style="enable-background:new 0 0 105.3 133.4;" xml:space="preserve">
<style type="text/css">
	.st0{fill:#6F968D;}
	.st1{fill:#004030;}
	.st2{fill:#053E30;}
	.st3{fill:#093D30;}
</style>
<g>
	<polygon class="st0" points="54.9,14 53.2,14.4 53.1,7.8 54.9,7.8 	"/>
	<path class="st1" d="M29.6,25.6c-2.4,3.4-8.2,12.3-8.2,24.9c-0.1,12.9,5.8,22.1,8.2,25.4C29.6,59.2,29.6,42.4,29.6,25.6z"/>
	<polygon class="st0" points="35.9,87.4 34.3,87.4 34.3,13.7 35.9,13.7 	"/>
	<rect x="38.6" y="11.6" class="st0" width="1.6" height="76"/>
	<rect x="42.8" y="8.3" class="st0" width="1.6" height="79.6"/>
	<rect x="47.3" y="5.2" class="st0" width="1.6" height="84.1"/>
	<polygon class="st0" points="54.7,87.6 53.1,87.6 53.1,29.1 54.7,29.1 	"/>
	<rect x="56.9" y="27.5" class="st0" width="1.6" height="60.2"/>
	<polygon class="st0" points="58.2,25.1 56.4,25.1 56.4,8.7 58.2,8.7 	"/>
	<polygon class="st0" points="54.2,30.4 53.1,29.1 58.9,25.1 60,26.5 	"/>
	<polygon class="st0" points="58.1,26.6 58.9,25.1 70,30.1 69.2,31.6 	"/>
	<polygon class="st0" points="48.6,3.6 49.7,5 35.4,15.1 34.3,13.7 	"/>
	<polygon class="st0" points="58.2,8.7 57.3,10.2 47.7,5.1 48.6,3.6 	"/>
	<rect x="61.5" y="27.6" class="st0" width="1.6" height="60.1"/>
	<rect x="65" y="29.5" class="st0" width="1.6" height="57.4"/>
	<polygon class="st0" points="70,86.2 68.4,86.2 68.4,30.2 70,30.1 	"/>
	<rect x="22.6" y="82.9" class="st2" width="6.9" height="6.4"/>
	<rect x="22.7" y="86.2" class="st1" width="26.2" height="3.1"/>
	<rect x="29.6" y="82.9" class="st3" width="1.6" height="1"/>
	<path class="st1" d="M98.3,51.5c0,21.1-18.2,37.8-40,37.8c-1.3,0-5,0.1-6.3,0l-0.3-2.4c6.7-0.4,13.7-0.7,19.7-4.8
		c9.4-6.4,16.4-18.7,16.4-30.1c0-13.7-5.3-26.6-15.9-32.4c-4.4-2.4-11.5-2.9-16.8-2.9c-1.9,0-1.7,0.2-3.5,0.5l-0.2-2.1
		c3.8-1.2,5.8-1.3,9.9-1.3C83.2,13.7,98.3,30.4,98.3,51.5z"/>
</g>
<g>
	<path class="st2" d="M6.3,99H11c4.8,0,6.8,2.3,6.8,6.6c0,4.7-1.9,7.4-7.1,7.4H6.3V99z M8.8,111.6h1.7c3.5,0,4.7-1.9,4.7-5.9
		c0-3.6-1.3-5.2-4.6-5.2H8.8L8.8,111.6L8.8,111.6z"/>
	<path class="st2" d="M30.1,106.4h-6.7v5.1h7.4l-0.3,1.5h-9.6V99h9.5v1.5h-7v4.3h6.7L30.1,106.4L30.1,106.4z"/>
	<path class="st2" d="M34.9,109.3c0.2,1.4,1.1,2.5,3.2,2.5c2.1,0,3-0.8,3-2.3c0-1.4-0.9-2.2-3.6-3.1c-3.2-1.1-4.6-2-4.6-4.1
		c0-2,1.8-3.5,5.2-3.5c4,0,5.1,2,5.1,3.7h-2.4c-0.1-0.7-0.4-2.2-2.8-2.2c-1.8,0-2.6,0.9-2.6,2c0,1.3,0.8,1.9,3.3,2.7
		c3.5,1.2,4.9,2.3,4.9,4.5c0,2.2-1.8,3.9-5.7,3.9c-4.2,0-5.5-1.9-5.7-3.9H34.9z"/>
	<path class="st2" d="M46.5,99H49v6.8c1.4-1.4,4.5-4.8,6.5-6.8h2.8l-5.7,5.6l5.8,8.4h-2.8l-4.7-6.9l-2,1.9v5h-2.5L46.5,99L46.5,99z"
		/>
	<path class="st2" d="M63.8,100.6h-4.5V99h11.4v1.5h-4.5V113h-2.5V100.6z"/>
	<path class="st2" d="M83.6,105.9c0,4.8-1.7,7.3-6.1,7.3c-4.2,0-6-2.4-6-7.3c0-4.8,2.1-7.1,6.1-7.1C81.8,98.8,83.6,101.1,83.6,105.9
		z M74,105.9c0,3.9,1.1,5.9,3.5,5.9c2.5,0,3.5-1.9,3.5-5.8c0-3.9-1.1-5.6-3.5-5.6C75.1,100.3,74,102.2,74,105.9z"/>
	<path class="st2" d="M86.8,99h5.4c3.2,0,5.4,1.4,5.4,4c0,2.5-2,4.1-5.8,4.1h-2.6v6h-2.5V99z M89.2,105.6h2.3c2.3,0,3.5-0.9,3.5-2.7
		c0-1.5-1.1-2.5-3.3-2.5h-2.5L89.2,105.6L89.2,105.6z"/>
</g>
<g>
	<path class="st2" d="M16.7,128.5l-3.2-8.9h1.7l1.4,4.1c0.4,1.2,0.9,2.7,1,3.6h0c0.2-0.8,0.8-2.4,1.2-3.6l1.4-4.1h1.6l-3.3,8.9H16.7
		z"/>
	<path class="st2" d="M23.8,125.8l-0.9,2.7h-1.6l3.1-8.9h2.1l3.2,8.9H28l-0.9-2.7H23.8z M26.8,124.8c-0.7-2.1-1.2-3.5-1.3-4.2h0
		c-0.2,0.8-0.7,2.3-1.3,4.2H26.8z"/>
	<path class="st2" d="M31,119.6h1.6v7.9h4.6l-0.2,1H31L31,119.6L31,119.6z"/>
	<path class="st2" d="M39.7,119.6v6.2c0,0.9,0.4,1.9,2,1.9c1.6,0,2-0.8,2-1.9v-6.2h1.6v6.2c0,1.6-0.9,2.8-3.6,2.8
		c-2.7,0-3.6-1.1-3.6-2.8v-6.3L39.7,119.6L39.7,119.6z"/>
	<path class="st2" d="M48.8,125.8l-0.9,2.7h-1.6l3.1-8.9h2.1l3.2,8.9H53l-0.9-2.7H48.8z M51.8,124.8c-0.7-2.1-1.2-3.5-1.3-4.2h0
		c-0.2,0.8-0.7,2.3-1.3,4.2H51.8z"/>
	<path class="st2" d="M56.7,120.6h-2.8v-1h7.3v1h-2.8v7.9h-1.6L56.7,120.6L56.7,120.6z"/>
	<path class="st2" d="M64,119.6v8.9h-1.6v-8.9H64z"/>
	<path class="st2" d="M73.8,124c0,3.1-1.1,4.7-3.9,4.7c-2.7,0-3.8-1.5-3.8-4.6c0-3.1,1.3-4.5,3.9-4.5C72.6,119.5,73.8,121,73.8,124z
		 M67.7,124c0,2.5,0.7,3.7,2.2,3.7c1.6,0,2.2-1.2,2.2-3.7c0-2.5-0.7-3.6-2.2-3.6C68.4,120.4,67.7,121.6,67.7,124z"/>
	<path class="st2" d="M75.8,128.5v-8.9h1.9c3.4,5.9,3.9,6.8,4,7.2h0c-0.1-1.2-0.1-2.5-0.1-3.9v-3.2h1.5v8.9h-1.8
		c-3.5-6.2-4-7.1-4.1-7.4h0c0.1,1.1,0.1,2.5,0.1,4.1v3.3H75.8z"/>
</g>
<image style="overflow:visible;" width="613" height="407" xlink:href="../Downloads/desktopValuation.png"  transform="matrix(1 0 0 1 -715.5 -161.6102)">
</image>
</svg>
